<svg width="18" height="19" viewBox="0 0 18 19" fill="none" xmlns="http://www.w3.org/2000/svg">
<path d="M10.738 18.5C11.0666 18.5 11.347 18.3754 11.5793 18.1261C11.8116 17.8824 12.0071 17.5567 12.1657 17.1487L17.7663 2.48867C17.84 2.29603 17.8966 2.11756 17.9363 1.95326C17.9759 1.78895 17.9958 1.63314 17.9958 1.48584C17.9958 1.18555 17.908 0.947592 17.7323 0.771955C17.5567 0.590652 17.3187 0.5 17.0184 0.5C16.8768 0.5 16.721 0.522663 16.551 0.567989C16.381 0.607649 16.1997 0.661473 16.0071 0.729462L1.29606 6.36402C0.927785 6.50567 0.619003 6.69263 0.369711 6.92493C0.126085 7.15722 0.00427246 7.43768 0.00427246 7.76629C0.00427246 8.16856 0.14025 8.46601 0.412204 8.65864C0.684159 8.84561 1.02694 9.00142 1.44053 9.12606L5.8513 10.4773C6.14591 10.568 6.39237 10.6048 6.59067 10.5878C6.78897 10.5652 6.99294 10.4575 7.20257 10.2649L16.6615 1.49433C16.7182 1.44334 16.7776 1.41785 16.84 1.41785C16.908 1.41785 16.9674 1.44051 17.0184 1.48584C17.0638 1.53116 17.0864 1.58782 17.0864 1.65581C17.0864 1.71813 17.0581 1.77762 17.0014 1.83428L8.26489 11.3187C8.08359 11.5113 7.97878 11.7096 7.95045 11.9136C7.92778 12.1176 7.95895 12.3697 8.04393 12.67L9.35271 16.9873C9.48302 17.4235 9.6445 17.7833 9.83713 18.0666C10.0298 18.3555 10.33 18.5 10.738 18.5Z" fill="#AEAEAE"/>
</svg>
