<svg width="21" height="21" viewBox="0 0 21 21" fill="none" xmlns="http://www.w3.org/2000/svg">
<g clip-path="url(#clip0_2_333)">
<mask id="path-1-inside-1_2_333" fill="white">
<path d="M19.1069 5.3137C19.1069 4.39703 18.3569 3.64703 17.4402 3.64703H4.10685C3.19019 3.64703 2.44019 4.39703 2.44019 5.3137V15.3137C2.44019 16.2304 3.19019 16.9804 4.10685 16.9804H17.4402C18.3569 16.9804 19.1069 16.2304 19.1069 15.3137V5.3137ZM17.4402 5.3137L10.7735 9.48037L4.10685 5.3137H17.4402ZM17.4402 15.3137H4.10685V6.98037L10.7735 11.147L17.4402 6.98037V15.3137Z"/>
</mask>
<path d="M17.4402 5.3137L18.5002 7.0097L24.4138 3.3137L17.4402 3.3137V5.3137ZM10.7735 9.48037L9.71352 11.1764L10.7735 11.8389L11.8335 11.1764L10.7735 9.48037ZM4.10685 5.3137V3.3137H-2.86674L3.04685 7.0097L4.10685 5.3137ZM17.4402 15.3137V17.3137H19.4402V15.3137H17.4402ZM4.10685 15.3137H2.10685V17.3137H4.10685V15.3137ZM4.10685 6.98037L5.16685 5.28437L2.10685 3.37187V6.98037H4.10685ZM10.7735 11.147L9.71352 12.843L10.7735 13.5055L11.8335 12.843L10.7735 11.147ZM17.4402 6.98037H19.4402V3.37187L16.3802 5.28437L17.4402 6.98037ZM21.1069 5.3137C21.1069 3.29246 19.4614 1.64703 17.4402 1.64703V5.64703C17.2523 5.64703 17.1069 5.5016 17.1069 5.3137H21.1069ZM17.4402 1.64703H4.10685V5.64703H17.4402V1.64703ZM4.10685 1.64703C2.08562 1.64703 0.440186 3.29246 0.440186 5.3137H4.44019C4.44019 5.5016 4.29475 5.64703 4.10685 5.64703V1.64703ZM0.440186 5.3137V15.3137H4.44019V5.3137H0.440186ZM0.440186 15.3137C0.440186 17.3349 2.08562 18.9804 4.10685 18.9804V14.9804C4.29475 14.9804 4.44019 15.1258 4.44019 15.3137H0.440186ZM4.10685 18.9804H17.4402V14.9804H4.10685V18.9804ZM17.4402 18.9804C19.4614 18.9804 21.1069 17.3349 21.1069 15.3137H17.1069C17.1069 15.1258 17.2523 14.9804 17.4402 14.9804V18.9804ZM21.1069 15.3137V5.3137H17.1069V15.3137H21.1069ZM16.3802 3.6177L9.71352 7.78437L11.8335 11.1764L18.5002 7.0097L16.3802 3.6177ZM11.8335 7.78437L5.16685 3.6177L3.04685 7.0097L9.71352 11.1764L11.8335 7.78437ZM4.10685 7.3137H17.4402V3.3137H4.10685V7.3137ZM17.4402 13.3137H4.10685V17.3137H17.4402V13.3137ZM6.10685 15.3137V6.98037H2.10685V15.3137H6.10685ZM3.04685 8.67636L9.71352 12.843L11.8335 9.45104L5.16685 5.28437L3.04685 8.67636ZM11.8335 12.843L18.5002 8.67636L16.3802 5.28437L9.71352 9.45104L11.8335 12.843ZM15.4402 6.98037V15.3137H19.4402V6.98037H15.4402Z" fill="#BFBFBF" mask="url(#path-1-inside-1_2_333)"/>
</g>
<defs>
<clipPath id="clip0_2_333">
<rect width="20" height="20" fill="white" transform="translate(0.773438 0.313705)"/>
</clipPath>
</defs>
</svg>
