<svg width="1106" height="505" viewBox="0 0 1106 505" fill="none" xmlns="http://www.w3.org/2000/svg">
<mask id="mask0_2_672" style="mask-type:alpha" maskUnits="userSpaceOnUse" x="0" y="0" width="1106" height="505">
<rect x="0.5" y="0.0437622" width="1105" height="504.956" fill="url(#paint0_radial_2_672)"/>
</mask>
<g mask="url(#mask0_2_672)">
<rect x="142.687" y="8.57577" width="95.1659" height="95.1659" stroke="white" stroke-width="1.20463"/>
<rect x="237.852" y="8.57577" width="95.1659" height="95.1659" stroke="white" stroke-width="1.20463"/>
<rect x="333.018" y="8.57577" width="95.1659" height="95.1659" stroke="white" stroke-width="1.20463"/>
<rect x="428.184" y="8.57577" width="95.1659" height="95.1659" stroke="white" stroke-width="1.20463"/>
<rect x="523.35" y="8.57577" width="95.1659" height="95.1659" stroke="white" stroke-width="1.20463"/>
<rect x="618.516" y="8.57577" width="95.1659" height="95.1659" stroke="white" stroke-width="1.20463"/>
<rect x="713.682" y="8.57577" width="95.1659" height="95.1659" fill="white" fill-opacity="0.25" stroke="white" stroke-width="1.20463"/>
<rect x="808.848" y="8.57577" width="95.1659" height="95.1659" stroke="white" stroke-width="1.20463"/>
<rect x="904.013" y="8.57577" width="95.1659" height="95.1659" stroke="white" stroke-width="1.20463"/>
<rect x="142.687" y="103.742" width="95.1659" height="95.1659" stroke="white" stroke-width="1.20463"/>
<rect x="237.852" y="103.742" width="95.1659" height="95.1659" stroke="white" stroke-width="1.20463"/>
<rect x="333.018" y="103.742" width="95.1659" height="95.1659" stroke="white" stroke-width="1.20463"/>
<rect x="428.184" y="103.742" width="95.1659" height="95.1659" stroke="white" stroke-width="1.20463"/>
<rect x="523.35" y="103.742" width="95.1659" height="95.1659" stroke="white" stroke-width="1.20463"/>
<rect x="618.516" y="103.742" width="95.1659" height="95.1659" stroke="white" stroke-width="1.20463"/>
<rect x="713.682" y="103.742" width="95.1659" height="95.1659" stroke="white" stroke-width="1.20463"/>
<rect x="808.848" y="103.742" width="95.1659" height="95.1659" stroke="white" stroke-width="1.20463"/>
<rect x="904.013" y="103.742" width="95.1659" height="95.1659" stroke="white" stroke-width="1.20463"/>
<rect x="142.687" y="198.907" width="95.1659" height="95.1659" stroke="white" stroke-width="1.20463"/>
<rect x="237.852" y="198.907" width="95.1659" height="95.1659" stroke="white" stroke-width="1.20463"/>
<rect x="333.018" y="198.907" width="95.1659" height="95.1659" stroke="white" stroke-width="1.20463"/>
<rect x="428.184" y="198.907" width="95.1659" height="95.1659" stroke="white" stroke-width="1.20463"/>
<rect x="523.35" y="198.907" width="95.1659" height="95.1659" fill="white" fill-opacity="0.25" stroke="white" stroke-width="1.20463"/>
<rect x="618.516" y="198.907" width="95.1659" height="95.1659" stroke="white" stroke-width="1.20463"/>
<rect x="713.682" y="198.907" width="95.1659" height="95.1659" fill="white" fill-opacity="0.25" stroke="white" stroke-width="1.20463"/>
<rect x="808.848" y="198.907" width="95.1659" height="95.1659" stroke="white" stroke-width="1.20463"/>
<rect x="904.013" y="198.907" width="95.1659" height="95.1659" stroke="white" stroke-width="1.20463"/>
<rect x="142.687" y="294.073" width="95.1659" height="95.1659" stroke="white" stroke-width="1.20463"/>
<rect x="237.852" y="294.073" width="95.1659" height="95.1659" stroke="white" stroke-width="1.20463"/>
<rect x="333.018" y="294.073" width="95.1659" height="95.1659" stroke="white" stroke-width="1.20463"/>
<rect x="428.184" y="294.073" width="95.1659" height="95.1659" stroke="white" stroke-width="1.20463"/>
<rect x="523.35" y="294.073" width="95.1659" height="95.1659" stroke="white" stroke-width="1.20463"/>
<rect x="618.516" y="294.073" width="95.1659" height="95.1659" stroke="white" stroke-width="1.20463"/>
<rect x="713.682" y="294.073" width="95.1659" height="95.1659" stroke="white" stroke-width="1.20463"/>
<rect x="808.848" y="294.073" width="95.1659" height="95.1659" stroke="white" stroke-width="1.20463"/>
<rect x="904.013" y="294.073" width="95.1659" height="95.1659" stroke="white" stroke-width="1.20463"/>
<rect x="142.687" y="389.239" width="95.1659" height="95.1659" stroke="white" stroke-width="1.20463"/>
<rect x="237.852" y="389.239" width="95.1659" height="95.1659" stroke="white" stroke-width="1.20463"/>
<rect x="333.018" y="389.239" width="95.1659" height="95.1659" stroke="white" stroke-width="1.20463"/>
<rect x="428.184" y="389.239" width="95.1659" height="95.1659" fill="white" fill-opacity="0.25" stroke="white" stroke-width="1.20463"/>
<rect x="523.35" y="389.239" width="95.1659" height="95.1659" stroke="white" stroke-width="1.20463"/>
<rect x="618.516" y="389.239" width="95.1659" height="95.1659" stroke="white" stroke-width="1.20463"/>
<rect x="713.682" y="389.239" width="95.1659" height="95.1659" stroke="white" stroke-width="1.20463"/>
<rect x="808.848" y="389.239" width="95.1659" height="95.1659" stroke="white" stroke-width="1.20463"/>
<rect x="904.013" y="389.239" width="95.1659" height="95.1659" stroke="white" stroke-width="1.20463"/>
<rect x="142.687" y="484.405" width="95.1659" height="95.1659" stroke="white" stroke-width="1.20463"/>
<rect x="237.852" y="484.405" width="95.1659" height="95.1659" stroke="white" stroke-width="1.20463"/>
<rect x="333.018" y="484.405" width="95.1659" height="95.1659" stroke="white" stroke-width="1.20463"/>
<rect x="428.184" y="484.405" width="95.1659" height="95.1659" stroke="white" stroke-width="1.20463"/>
<rect x="523.35" y="484.405" width="95.1659" height="95.1659" stroke="white" stroke-width="1.20463"/>
<rect x="618.516" y="484.405" width="95.1659" height="95.1659" stroke="white" stroke-width="1.20463"/>
<rect x="713.682" y="484.405" width="95.1659" height="95.1659" stroke="white" stroke-width="1.20463"/>
<rect x="808.848" y="484.405" width="95.1659" height="95.1659" stroke="white" stroke-width="1.20463"/>
<rect x="904.013" y="484.405" width="95.1659" height="95.1659" stroke="white" stroke-width="1.20463"/>
</g>
<defs>
<radialGradient id="paint0_radial_2_672" cx="0" cy="0" r="1" gradientUnits="userSpaceOnUse" gradientTransform="translate(553 252.522) rotate(90) scale(311.249 681.108)">
<stop stop-color="#D9D9D9" stop-opacity="0.2"/>
<stop offset="0.802083" stop-color="#D9D9D9" stop-opacity="0"/>
</radialGradient>
</defs>
</svg>
