<svg width="16" height="17" viewBox="0 0 16 17" fill="none" xmlns="http://www.w3.org/2000/svg">
<g clip-path="url(#clip0_2_437)">
<path d="M4.00008 7.16666C3.26675 7.16666 2.66675 7.76666 2.66675 8.49999C2.66675 9.23332 3.26675 9.83332 4.00008 9.83332C4.73341 9.83332 5.33341 9.23332 5.33341 8.49999C5.33341 7.76666 4.73341 7.16666 4.00008 7.16666ZM12.0001 7.16666C11.2667 7.16666 10.6667 7.76666 10.6667 8.49999C10.6667 9.23332 11.2667 9.83332 12.0001 9.83332C12.7334 9.83332 13.3334 9.23332 13.3334 8.49999C13.3334 7.76666 12.7334 7.16666 12.0001 7.16666ZM8.00008 7.16666C7.26675 7.16666 6.66675 7.76666 6.66675 8.49999C6.66675 9.23332 7.26675 9.83332 8.00008 9.83332C8.73341 9.83332 9.33341 9.23332 9.33341 8.49999C9.33341 7.76666 8.73341 7.16666 8.00008 7.16666Z" fill="#D9D9D9"/>
</g>
<defs>
<clipPath id="clip0_2_437">
<rect width="16" height="16" fill="white" transform="translate(0 0.5)"/>
</clipPath>
</defs>
</svg>
